<svg id="Layer_1" data-name="Layer 1" xmlns="http://www.w3.org/2000/svg" xmlns:xlink="http://www.w3.org/1999/xlink" viewBox="0 0 266 362.5"><defs><style>.cls-1{fill:none;}.cls-2{fill:url(#linear-gradient);}.cls-3{fill:url(#linear-gradient-2);}.cls-4{clip-path:url(#clip-path);}.cls-5{opacity:0.15;}.cls-6{fill:#0becc6;}.cls-7{fill:#19b5cd;}.cls-8{fill:url(#linear-gradient-3);}</style><linearGradient id="linear-gradient" x1="5" y1="203.75" x2="176.5" y2="203.75" gradientUnits="userSpaceOnUse"><stop offset="0" stop-color="#678ddb"/><stop offset="1" stop-color="#4a81c7"/></linearGradient><linearGradient id="linear-gradient-2" x1="4.97" y1="311" x2="93.03" y2="311" gradientUnits="userSpaceOnUse"><stop offset="0" stop-color="#4772cb"/><stop offset="1" stop-color="#4a81c7"/></linearGradient><clipPath id="clip-path"><path class="cls-1" d="M90,45A86,86,0,0,0,5,117.85v26.3l.45,195A86.39,86.39,0,0,0,5,348c0,4.76-.23,9.94.5,14.5C53.59,361.9,93,322.23,93,274c0-4.76.23-9.94-.5-14.5h-.25L93,216.92l1-86.42h0A41.5,41.5,0,0,1,135.5,89c18.44,0,35.59,12,41,28.66C170.09,76.5,133,45,90,45Z"/></clipPath><linearGradient id="linear-gradient-3" x1="5" y1="174" x2="266" y2="174" gradientUnits="userSpaceOnUse"><stop offset="0" stop-color="#4c9aff"/><stop offset="1" stop-color="#56b8e9"/></linearGradient></defs><path class="cls-2" d="M90,45A86,86,0,0,0,5,117.85v26.3L5.5,362.5,92.25,259.75,93,216.92l1-86.42h0A41.5,41.5,0,0,1,135.5,89c18.44,0,35.59,12,41,28.66C170.09,76.5,133,45,90,45Z"/><path class="cls-3" d="M5,348c0,4.76-.23,9.94.5,14.5C53.59,361.9,93,322.23,93,274c0-4.76.23-9.94-.5-14.5C44.41,260.1,5,299.77,5,348Z"/><g class="cls-4"><path class="cls-5" d="M130.5,9A130.5,130.5,0,0,0,0,139.5v.33a86,86,0,0,1,171.93-2.71c0,.79.07,1.58.07,2.38,0,.08,0,.17,0,.25s0,.17,0,.25c0,.4,0,.77,0,1.13a41.5,41.5,0,0,1-36.34,39.54.64.64,0,0,1-.46.24c-13.74.59-36.13.29-44.17.15L88,181c-1.36,0-2.71,0-4.06.1h-.29c-1.29.06-2.57.16-3.84.27l-.45,0c-1.24.12-2.47.27-3.69.44l-.52.08c-1.21.17-2.41.38-3.6.6l-.54.1c-1.19.24-2.37.49-3.54.77l-.5.13c-1.18.29-2.36.6-3.52.94l-.41.12c-1.2.35-2.38.72-3.55,1.12l-.26.1c-1.22.42-2.43.86-3.62,1.33l0,0c-2.46,1-4.87,2.06-7.22,3.25l-.15.07c-1.13.57-2.24,1.17-3.33,1.79l-.25.14q-1.6.92-3.18,1.89l-.29.18c-1,.66-2.06,1.33-3.07,2l-.27.19c-1,.7-2,1.42-3,2.17l-.22.17q-1.5,1.14-2.94,2.34l-.13.12c-1,.82-2,1.67-2.91,2.54a88.44,88.44,0,0,0-7.09,7.27c-.79.91-1.56,1.84-2.32,2.79l-.2.25c-.72.91-1.42,1.84-2.11,2.77l-.27.37c-.67.93-1.32,1.87-2,2.82l-.24.38c-.64,1-1.27,2-1.87,3l-.16.28c-1.25,2.09-2.42,4.24-3.49,6.44a2,2,0,0,0-.13.25c-.51,1-1,2.12-1.47,3.19-.06.15-.12.29-.19.44-.45,1.05-.88,2.11-1.29,3.19-.07.16-.13.33-.19.5-.41,1.07-.8,2.16-1.16,3.25l-.15.45c-.37,1.13-.72,2.27-1,3.42l-.06.23c-.33,1.16-.63,2.34-.91,3.52l-.05.2c-.27,1.17-.51,2.35-.74,3.54l-.09.48c-.21,1.15-.4,2.3-.56,3.46,0,.2-.06.4-.08.6-.16,1.15-.3,2.31-.41,3.48,0,.2,0,.39-.05.58-.1,1.19-.19,2.39-.25,3.6,0,.14,0,.28,0,.42C0,266.44,0,267.72,0,269v88a88,88,0,0,1,86.89-88H88l29.18.33a133.18,133.18,0,0,0,13.32.67,130.5,130.5,0,0,0,0-261Z"/></g><path class="cls-6" d="M46.16,185.49l.29-.18Z"/><path class="cls-6" d="M39.61,190.05l.22-.17Z"/><path class="cls-6" d="M42.82,187.71l.27-.19Z"/><path class="cls-6" d="M8.24,236.29l.06-.23Z"/><path class="cls-6" d="M49.63,183.42l.25-.14Z"/><path class="cls-6" d="M60.58,178.17l0,0Z"/><path class="cls-6" d="M13.79,221.62a2,2,0,0,1,.13-.25A2,2,0,0,0,13.79,221.62Z"/><path class="cls-6" d="M7.28,240l0-.2Z"/><path class="cls-6" d="M53.21,181.49l.15-.07Z"/><path class="cls-6" d="M21.64,208.5l.27-.37Z"/><path class="cls-6" d="M64.23,176.82l.26-.1Z"/><path class="cls-6" d="M19.44,211.7l.24-.38Z"/><path class="cls-6" d="M12.13,225.25c.07-.15.13-.29.19-.44C12.26,225,12.2,225.1,12.13,225.25Z"/><path class="cls-6" d="M17.41,214.93l.16-.28Z"/><path class="cls-6" d="M9.34,232.64l.15-.45Z"/><path class="cls-6" d="M36.54,192.51l.13-.12Z"/><path class="cls-6" d="M10.65,228.94c.06-.17.12-.34.19-.5C10.77,228.6,10.71,228.77,10.65,228.94Z"/><path class="cls-6" d="M24,205.36l.2-.25Z"/><path class="cls-6" d="M6.45,244l.09-.48Z"/><path class="cls-6" d="M80.15,172.94l.52-.08Z"/><path class="cls-6" d="M5.35,252.15c0-.19,0-.38.05-.58C5.39,251.77,5.37,252,5.35,252.15Z"/><path class="cls-6" d="M5.09,256.17c0-.14,0-.28,0-.42C5.1,255.89,5.09,256,5.09,256.17Z"/><path class="cls-6" d="M84.36,172.42l.45,0Z"/><path class="cls-6" d="M76,173.64l.54-.1Z"/><path class="cls-6" d="M5.81,248.09c0-.2.05-.4.08-.6C5.86,247.69,5.83,247.89,5.81,248.09Z"/><path class="cls-6" d="M68,175.6l.41-.12Z"/><path class="cls-6" d="M88.65,172.11h0Z"/><path class="cls-6" d="M72,174.54l.5-.13Z"/><path class="cls-7" d="M10.84,228.44c.41-1.08.84-2.14,1.29-3.19C11.68,226.3,11.25,227.36,10.84,228.44Z"/><path class="cls-7" d="M12.32,224.81c.47-1.07,1-2.14,1.47-3.19C13.28,222.67,12.79,223.74,12.32,224.81Z"/><path class="cls-7" d="M5.4,251.57c.11-1.17.25-2.33.41-3.48C5.65,249.24,5.51,250.4,5.4,251.57Z"/><path class="cls-7" d="M5.89,247.49c.16-1.16.35-2.31.56-3.46C6.24,245.18,6.05,246.33,5.89,247.49Z"/><path class="cls-7" d="M7.33,239.81c.28-1.18.58-2.36.91-3.52C7.91,237.45,7.61,238.63,7.33,239.81Z"/><path class="cls-7" d="M6.54,243.55c.23-1.19.47-2.37.74-3.54C7,241.18,6.77,242.36,6.54,243.55Z"/><path class="cls-7" d="M8.3,236.06c.32-1.15.67-2.29,1-3.42C9,233.77,8.62,234.91,8.3,236.06Z"/><path class="cls-7" d="M9.49,232.19c.36-1.09.75-2.18,1.16-3.25C10.24,230,9.85,231.1,9.49,232.19Z"/><path class="cls-7" d="M5,260c0-1.28,0-2.56.09-3.83C5,257.44,5,258.72,5,260Z"/><path class="cls-7" d="M5.1,255.75c.06-1.21.15-2.41.25-3.6C5.25,253.34,5.16,254.54,5.1,255.75Z"/><path class="cls-7" d="M21.91,208.13c.69-.93,1.39-1.86,2.11-2.77C23.3,206.27,22.6,207.2,21.91,208.13Z"/><path class="cls-7" d="M72.47,174.41c1.17-.28,2.35-.53,3.54-.77C74.82,173.88,73.64,174.13,72.47,174.41Z"/><path class="cls-7" d="M76.55,173.54c1.19-.22,2.39-.43,3.6-.6C78.94,173.11,77.74,173.32,76.55,173.54Z"/><path class="cls-7" d="M80.67,172.86c1.22-.17,2.45-.32,3.69-.44C83.12,172.54,81.89,172.69,80.67,172.86Z"/><path class="cls-7" d="M68.45,175.48c1.16-.34,2.34-.65,3.52-.94C70.79,174.83,69.61,175.14,68.45,175.48Z"/><path class="cls-7" d="M64.49,176.72c1.17-.4,2.35-.77,3.55-1.12C66.84,176,65.66,176.32,64.49,176.72Z"/><path class="cls-7" d="M60.61,178.15c1.19-.47,2.4-.91,3.62-1.33C63,177.24,61.8,177.68,60.61,178.15Z"/><path class="cls-7" d="M84.81,172.38c1.27-.11,2.55-.21,3.84-.27C87.36,172.17,86.08,172.27,84.81,172.38Z"/><path class="cls-7" d="M93,172l3,.06C95,172,94,172,93,172Z"/><path class="cls-7" d="M88.94,172.1c1.35-.06,2.7-.1,4.06-.1C91.64,172,90.29,172,88.94,172.1Z"/><path class="cls-7" d="M19.68,211.32c.64-.95,1.29-1.89,2-2.82C21,209.43,20.32,210.37,19.68,211.32Z"/><path class="cls-7" d="M33.63,195.05c.95-.87,1.92-1.72,2.91-2.54C35.55,193.33,34.58,194.18,33.63,195.05Z"/><path class="cls-7" d="M24.22,205.11c.76-1,1.53-1.88,2.32-2.79C25.75,203.23,25,204.16,24.22,205.11Z"/><path class="cls-7" d="M17.57,214.65c.6-1,1.23-2,1.87-3C18.8,212.67,18.17,213.66,17.57,214.65Z"/><path class="cls-7" d="M13.92,221.37c1.07-2.2,2.24-4.35,3.49-6.44C16.16,217,15,219.17,13.92,221.37Z"/><path class="cls-7" d="M36.67,192.39q1.44-1.2,2.94-2.34Q38.11,191.19,36.67,192.39Z"/><path class="cls-7" d="M39.83,189.88c1-.75,2-1.47,3-2.17C41.81,188.41,40.81,189.13,39.83,189.88Z"/><path class="cls-7" d="M49.88,183.28c1.09-.62,2.2-1.22,3.33-1.79C52.08,182.06,51,182.66,49.88,183.28Z"/><path class="cls-7" d="M46.45,185.31q1.57-1,3.18-1.89Q48,184.34,46.45,185.31Z"/><path class="cls-7" d="M53.36,181.42c2.35-1.19,4.76-2.28,7.22-3.25C58.12,179.14,55.71,180.23,53.36,181.42Z"/><path class="cls-7" d="M43.09,187.52c1-.7,2-1.37,3.07-2C45.12,186.15,44.1,186.82,43.09,187.52Z"/><path class="cls-8" d="M135.5,0A130.5,130.5,0,0,0,5,130.5v.33a86,86,0,0,1,171.93-2.71c0,.79.07,1.58.07,2.38,0,.08,0,.17,0,.25s0,.17,0,.25c0,.4,0,.77,0,1.13a41.5,41.5,0,0,1-36.34,39.54.64.64,0,0,1-.46.24c-13.74.59-36.13.29-44.17.15L93,172c-1.36,0-2.71,0-4.06.1h-.29c-1.29.06-2.57.16-3.84.27l-.45,0c-1.24.12-2.47.27-3.69.44l-.52.08c-1.21.17-2.41.38-3.6.6l-.54.1c-1.19.24-2.37.49-3.54.77l-.5.13c-1.18.29-2.36.6-3.52.94l-.41.12c-1.2.35-2.38.72-3.55,1.12l-.26.1c-1.22.42-2.43.86-3.62,1.33l0,0c-2.46,1-4.87,2.06-7.22,3.25l-.15.07c-1.13.57-2.24,1.17-3.33,1.79l-.25.14q-1.6.92-3.18,1.89l-.29.18c-1,.66-2.06,1.33-3.07,2l-.27.19c-1,.7-2,1.42-3,2.17l-.22.17q-1.5,1.14-2.94,2.34l-.13.12c-1,.82-2,1.67-2.91,2.54a88.44,88.44,0,0,0-7.09,7.27c-.79.91-1.56,1.84-2.32,2.79l-.2.25c-.72.91-1.42,1.84-2.11,2.77l-.27.37c-.67.93-1.32,1.87-2,2.82l-.24.38c-.64,1-1.27,2-1.87,3l-.16.28c-1.25,2.09-2.42,4.24-3.49,6.44a2,2,0,0,0-.13.25c-.51,1-1,2.12-1.47,3.19-.06.15-.12.29-.19.44-.45,1.05-.88,2.11-1.29,3.19-.07.16-.13.33-.19.5-.41,1.07-.8,2.16-1.16,3.25l-.15.45c-.37,1.13-.72,2.27-1,3.42l-.06.23c-.33,1.16-.63,2.34-.91,3.52l0,.2c-.27,1.17-.51,2.35-.74,3.54l-.09.48c-.21,1.15-.4,2.3-.56,3.46,0,.2-.06.4-.08.6-.16,1.15-.3,2.31-.41,3.48,0,.2,0,.39-.05.58-.1,1.19-.19,2.39-.25,3.6,0,.14,0,.28,0,.42C5,257.44,5,258.72,5,260v88a88,88,0,0,1,86.89-88H93l29.18.33a133.18,133.18,0,0,0,13.32.67,130.5,130.5,0,0,0,0-261Z"/></svg>